# xmcd
#
# Track frame offsets: 
#        150
#        13306
#        30574
#        51435
#        69660
#        85779
#
# Disc length: 1447 seconds
#
# Revision: 0
# Processed by: cddbd v1.5.2PL0 Copyright (c) Steve Scherf et al.
# Submitted via: ExactAudioCopy v0.99pb4
#
DISCID=4b05a506
DTITLE=Bryan White - Shine
DYEAR=2014
DGENRE=Country
TTITLE0=Another Day In The Sun
TTITLE1=Amen
TTITLE2=Call Me Crazy
TTITLE3=Born To Be Somebody
TTITLE4=Another Man's Shoes
TTITLE5=What I Already Know
EXTD=
EXTT0=
EXTT1=
EXTT2=
EXTT3=
EXTT4=
EXTT5=
PLAYORDER=
